# xmcd
#
# Track frame offsets:
#	150
#	18997
#	35754
#	56151
#	69741
#	87239
#	106304
#	124009
#	139207
#	157845
#	174865
#	193715
#	210472
#	230869
#	244459
#	261957
#	281022
#	298730
#	313930
#	332568
#
# Disc length: 4661 seconds
#
# Revision: 1
# Processed by: cddbd v1.5.2PL0 Copyright (c) Steve Scherf et al.
# Submitted via: audiograbber 1.83.01
#
DISCID=34123314
DTITLE=Top Hits Monthly - THM-BC04
DYEAR=1900
DGENRE=
TTITLE0=Hill, Faith - Breathe (v)
TTITLE1=Chesney, Kenny - She Thinks My Tractor's Sexy (v)
TTITLE2=McGraw, Tim - My Best Friend (v)
TTITLE3=Lawrence, Tracy - Lessons Learned (v)
TTITLE4=Tennison, Chalee - Just Because She Lives There (v)
TTITLE5=Twain, Shania - Rock This Country (v)
TTITLE6=Yearwood, Trisha - Real Live Women (v)
TTITLE7=Judd, Wynonna - Can't Nobody Love You Like I Do (v)
TTITLE8=Davidson, Clay - Unconditional (v)
TTITLE9=Vassar, Phil - Carlene (v)
TTITLE10=Hill, Faith - Breathe
TTITLE11=Chesney, Kenny - She Thinks My Tractor's Sexy
TTITLE12=McGraw, Tim - My Best Friend
TTITLE13=Lawrence, Tracy - Lessons Learned
TTITLE14=Tennison, Chalee - Just Because She Lives There
TTITLE15=Twain, Shania - Rock This Country
TTITLE16=Yearwood, Trisha - Real Live Women
TTITLE17=Judd, Wynonna - Can't Nobody Love You Like I Do
TTITLE18=Davidson, Clay - Unconditional
TTITLE19=Vassar, Phil - Carlene
EXTD=
EXTT0=
EXTT1=
EXTT2=
EXTT3=
EXTT4=
EXTT5=
EXTT6=
EXTT7=
EXTT8=
EXTT9=
EXTT10=
EXTT11=
EXTT12=
EXTT13=
EXTT14=
EXTT15=
EXTT16=
EXTT17=
EXTT18=
EXTT19=
PLAYORDER=
